<svg xmlns="http://www.w3.org/2000/svg" version="1.1" xmlns:xlink="http://www.w3.org/1999/xlink" xmlns:svgjs="http://svgjs.dev/svgjs" width="1440" height="560" preserveAspectRatio="none" viewBox="0 0 1440 560"><g mask="url(&quot;#SvgjsMask2463&quot;)" fill="none"><rect width="1440" height="560" x="0" y="0" fill="url(&quot;#SvgjsLinearGradient2464&quot;)"></rect><path d="M648.36 418.37L678.3 418.37L678.3 471.62L648.36 471.62z" fill="rgba(43, 33, 33, 1)"></path><path d="M602.55 464.06 a22.18 22.18 0 1 0 44.36 0 a22.18 22.18 0 1 0 -44.36 0z" stroke="rgba(69, 32, 128, 1)"></path><path d="M957.19 466.84 a36.6 36.6 0 1 0 73.2 0 a36.6 36.6 0 1 0 -73.2 0z" stroke="rgba(93, 92, 162, 1)"></path><path d="M1095.41 319.32a6.12 6.12 0 1 0-7.4-9.75z" stroke="rgba(43, 33, 33, 1)"></path><path d="M173.46 386.76L214.31 386.76L214.31 433.29L173.46 433.29z" stroke="rgba(43, 33, 33, 1)"></path><path d="M915.96 537.67 a3.59 3.59 0 1 0 7.18 0 a3.59 3.59 0 1 0 -7.18 0z" stroke="rgba(43, 33, 33, 1)"></path><path d="M553.06 359.4a48.26 48.26 0 1 0 79.06-55.36z" stroke="rgba(43, 33, 33, 1)"></path><path d="M269.52 486.24a33.43 33.43 0 1 0-62.79 22.99z" fill="rgba(43, 33, 33, 1)"></path><path d="M447.97 558.15a22.69 22.69 0 1 0-30.6-33.51z" fill="rgba(69, 32, 128, 1)"></path><path d="M832.52 4.43L836.05 4.43L836.05 21.95L832.52 21.95z" fill="rgba(93, 92, 162, 1)"></path><path d="M838.75 115.67 a16.93 16.93 0 1 0 33.86 0 a16.93 16.93 0 1 0 -33.86 0z" fill="rgba(69, 32, 128, 1)"></path><path d="M18.16 474.57L56 474.57L56 516.28L18.16 516.28z" fill="rgba(43, 33, 33, 1)"></path><path d="M760.07 370.99L775.3 370.99L775.3 383.69L760.07 383.69z" stroke="rgba(69, 32, 128, 1)"></path><path d="M620.96 34.16a53.14 53.14 0 1 0-101.21 32.42z" stroke="rgba(43, 33, 33, 1)"></path><path d="M950.59 531.76 a12.42 12.42 0 1 0 24.84 0 a12.42 12.42 0 1 0 -24.84 0z" stroke="rgba(93, 92, 162, 1)"></path><path d="M47.31 293.28 a39.61 39.61 0 1 0 79.22 0 a39.61 39.61 0 1 0 -79.22 0z" fill="rgba(93, 92, 162, 1)"></path><path d="M606.84 244.21a30.44 30.44 0 1 0 53.97 28.18z" fill="rgba(69, 32, 128, 1)"></path><path d="M89.5 96.04L132.48 96.04L132.48 129.42L89.5 129.42z" stroke="rgba(93, 92, 162, 1)"></path><path d="M283.82 241.87a41.34 41.34 0 1 0 44.21-69.86z" stroke="rgba(69, 32, 128, 1)"></path><path d="M800.41 307.93a22.9 22.9 0 1 0 20.25 41.07z" fill="rgba(93, 92, 162, 1)"></path><path d="M395.97 383.99a33.74 33.74 0 1 0 50.41 44.86z" fill="rgba(43, 33, 33, 1)"></path><path d="M236.02 493.65a31.09 31.09 0 1 0 61.18-11.12z" fill="rgba(43, 33, 33, 1)"></path><path d="M781.56 84.78L787.82 84.78L787.82 102.63L781.56 102.63z" stroke="rgba(93, 92, 162, 1)"></path><path d="M226.86 317.14a24.84 24.84 0 1 0 36.48-33.72z" fill="rgba(43, 33, 33, 1)"></path><path d="M1325.91 54.98a28.42 28.42 0 1 0-25.86 50.62z" stroke="rgba(69, 32, 128, 1)"></path><path d="M654.78 283.39L703.14 283.39L703.14 331.75L654.78 331.75z" fill="rgba(93, 92, 162, 1)"></path><path d="M1298.23 376.64L1327.44 376.64L1327.44 428.86L1298.23 428.86z" stroke="rgba(93, 92, 162, 1)"></path><path d="M502.56 294.72L537.04 294.72L537.04 329.2L502.56 329.2z" stroke="rgba(43, 33, 33, 1)"></path><path d="M365.02 289.24 a8.81 8.81 0 1 0 17.62 0 a8.81 8.81 0 1 0 -17.62 0z" stroke="rgba(93, 92, 162, 1)"></path><path d="M164.68 437.53L205.7 437.53L205.7 478.55L164.68 478.55z" stroke="rgba(43, 33, 33, 1)"></path><path d="M893.67 420.02a42.81 42.81 0 1 0-31.26 79.7z" fill="rgba(69, 32, 128, 1)"></path><path d="M719.2 539.61a14.67 14.67 0 1 0-14.07 25.75z" fill="rgba(93, 92, 162, 1)"></path><path d="M431.82 530.96 a4.56 4.56 0 1 0 9.12 0 a4.56 4.56 0 1 0 -9.12 0z" fill="rgba(69, 32, 128, 1)"></path></g><defs><mask id="SvgjsMask2463"><rect width="1440" height="560" fill="#ffffff"></rect></mask><linearGradient x1="84.72%" y1="139.29%" x2="15.28%" y2="-39.29%" gradientUnits="userSpaceOnUse" id="SvgjsLinearGradient2464"><stop stop-color="#0e2a47" offset="0"></stop><stop stop-color="rgba(84, 92, 101, 1)" offset="0.38"></stop><stop stop-color="rgba(253, 254, 255, 1)" offset="0.75"></stop><stop stop-color="rgba(253, 254, 255, 1)" offset="0.77"></stop><stop stop-color="rgba(253, 254, 255, 1)" offset="0.77"></stop><stop stop-color="rgba(253, 254, 255, 1)" offset="0.82"></stop><stop stop-color="rgba(253, 254, 255, 1)" offset="0.84"></stop><stop stop-color="rgba(253, 254, 255, 1)" offset="0.84"></stop><stop stop-color="rgba(253, 254, 255, 1)" offset="0.84"></stop><stop stop-color="rgba(253, 254, 255, 1)" offset="0.84"></stop><stop stop-color="rgba(253, 254, 255, 1)" offset="0.9"></stop><stop stop-color="rgba(253, 254, 255, 1)" offset="0.9"></stop><stop stop-color="rgba(253, 254, 255, 1)" offset="0.9"></stop><stop stop-color="rgba(253, 254, 255, 1)" offset="0.9"></stop><stop stop-color="rgba(253, 254, 255, 1)" offset="0.94"></stop><stop stop-color="rgba(86, 117, 148, 1)" offset="1"></stop><stop stop-color="rgba(253, 254, 255, 1)" offset="1"></stop></linearGradient></defs></svg>