<svg xmlns="http://www.w3.org/2000/svg" version="1.1" xmlns:xlink="http://www.w3.org/1999/xlink" xmlns:svgjs="http://svgjs.dev/svgjs" width="1440" height="560" preserveAspectRatio="none" viewBox="0 0 1440 560"><g mask="url(&quot;#SvgjsMask1057&quot;)" fill="none"><path d="M94 189L93 416" stroke-width="8" stroke="url(&quot;#SvgjsLinearGradient1058&quot;)" stroke-linecap="round" class="Up"></path><path d="M10 471L9 277" stroke-width="8" stroke="url(&quot;#SvgjsLinearGradient1058&quot;)" stroke-linecap="round" class="Up"></path><path d="M960 156L959 447" stroke-width="8" stroke="url(&quot;#SvgjsLinearGradient1058&quot;)" stroke-linecap="round" class="Up"></path><path d="M1010 48L1009 -257" stroke-width="10" stroke="url(&quot;#SvgjsLinearGradient1059&quot;)" stroke-linecap="round" class="Down"></path><path d="M574 163L573 -177" stroke-width="6" stroke="url(&quot;#SvgjsLinearGradient1059&quot;)" stroke-linecap="round" class="Down"></path><path d="M1379 527L1378 354" stroke-width="6" stroke="url(&quot;#SvgjsLinearGradient1059&quot;)" stroke-linecap="round" class="Down"></path><path d="M1316 311L1315 3" stroke-width="10" stroke="url(&quot;#SvgjsLinearGradient1058&quot;)" stroke-linecap="round" class="Up"></path><path d="M386 216L385 -140" stroke-width="10" stroke="url(&quot;#SvgjsLinearGradient1059&quot;)" stroke-linecap="round" class="Down"></path><path d="M1388 475L1387 695" stroke-width="10" stroke="url(&quot;#SvgjsLinearGradient1058&quot;)" stroke-linecap="round" class="Up"></path><path d="M1274 308L1273 34" stroke-width="8" stroke="url(&quot;#SvgjsLinearGradient1058&quot;)" stroke-linecap="round" class="Up"></path><path d="M137 97L136 247" stroke-width="8" stroke="url(&quot;#SvgjsLinearGradient1059&quot;)" stroke-linecap="round" class="Down"></path><path d="M1114 297L1113 25" stroke-width="6" stroke="url(&quot;#SvgjsLinearGradient1059&quot;)" stroke-linecap="round" class="Down"></path><path d="M137 58L136 422" stroke-width="6" stroke="url(&quot;#SvgjsLinearGradient1058&quot;)" stroke-linecap="round" class="Up"></path><path d="M70 200L69 519" stroke-width="8" stroke="url(&quot;#SvgjsLinearGradient1058&quot;)" stroke-linecap="round" class="Up"></path><path d="M325 50L324 254" stroke-width="8" stroke="url(&quot;#SvgjsLinearGradient1058&quot;)" stroke-linecap="round" class="Up"></path><path d="M875 456L874 684" stroke-width="8" stroke="url(&quot;#SvgjsLinearGradient1058&quot;)" stroke-linecap="round" class="Up"></path><path d="M208 417L207 727" stroke-width="8" stroke="url(&quot;#SvgjsLinearGradient1058&quot;)" stroke-linecap="round" class="Up"></path><path d="M144 83L143 283" stroke-width="6" stroke="url(&quot;#SvgjsLinearGradient1059&quot;)" stroke-linecap="round" class="Down"></path><path d="M914 187L913 2" stroke-width="6" stroke="url(&quot;#SvgjsLinearGradient1059&quot;)" stroke-linecap="round" class="Down"></path><path d="M823 372L822 710" stroke-width="8" stroke="url(&quot;#SvgjsLinearGradient1058&quot;)" stroke-linecap="round" class="Up"></path><path d="M359 22L358 -315" stroke-width="10" stroke="url(&quot;#SvgjsLinearGradient1059&quot;)" stroke-linecap="round" class="Down"></path><path d="M55 433L54 734" stroke-width="10" stroke="url(&quot;#SvgjsLinearGradient1059&quot;)" stroke-linecap="round" class="Down"></path><path d="M70 465L69 76" stroke-width="8" stroke="url(&quot;#SvgjsLinearGradient1059&quot;)" stroke-linecap="round" class="Down"></path><path d="M967 338L966 126" stroke-width="8" stroke="url(&quot;#SvgjsLinearGradient1059&quot;)" stroke-linecap="round" class="Down"></path><path d="M1420 543L1419 186" stroke-width="8" stroke="url(&quot;#SvgjsLinearGradient1058&quot;)" stroke-linecap="round" class="Up"></path><path d="M166 171L165 573" stroke-width="8" stroke="url(&quot;#SvgjsLinearGradient1058&quot;)" stroke-linecap="round" class="Up"></path><path d="M655 240L654 12" stroke-width="6" stroke="url(&quot;#SvgjsLinearGradient1059&quot;)" stroke-linecap="round" class="Down"></path><path d="M1229 352L1228 757" stroke-width="10" stroke="url(&quot;#SvgjsLinearGradient1059&quot;)" stroke-linecap="round" class="Down"></path><path d="M1437 384L1436 787" stroke-width="8" stroke="url(&quot;#SvgjsLinearGradient1058&quot;)" stroke-linecap="round" class="Up"></path><path d="M1369 489L1368 94" stroke-width="10" stroke="url(&quot;#SvgjsLinearGradient1058&quot;)" stroke-linecap="round" class="Up"></path><path d="M331 161L330 525" stroke-width="8" stroke="url(&quot;#SvgjsLinearGradient1058&quot;)" stroke-linecap="round" class="Up"></path><path d="M943 514L942 841" stroke-width="8" stroke="url(&quot;#SvgjsLinearGradient1058&quot;)" stroke-linecap="round" class="Up"></path><path d="M432 33L431 348" stroke-width="8" stroke="url(&quot;#SvgjsLinearGradient1059&quot;)" stroke-linecap="round" class="Down"></path><path d="M312 276L311 613" stroke-width="6" stroke="url(&quot;#SvgjsLinearGradient1058&quot;)" stroke-linecap="round" class="Up"></path><path d="M1140 226L1139 546" stroke-width="8" stroke="url(&quot;#SvgjsLinearGradient1059&quot;)" stroke-linecap="round" class="Down"></path><path d="M325 356L324 594" stroke-width="6" stroke="url(&quot;#SvgjsLinearGradient1059&quot;)" stroke-linecap="round" class="Down"></path></g><defs><mask id="SvgjsMask1057"><rect width="1440" height="560" fill="#ffffff"></rect></mask><linearGradient x1="0%" y1="100%" x2="0%" y2="0%" id="SvgjsLinearGradient1058"><stop stop-color="rgba(0, 0, 0, 0)" offset="0"></stop><stop stop-color="rgba(0, 0, 0, 0.7)" offset="1"></stop></linearGradient><linearGradient x1="0%" y1="0%" x2="0%" y2="100%" id="SvgjsLinearGradient1059"><stop stop-color="rgba(0, 0, 0, 0)" offset="0"></stop><stop stop-color="rgba(0, 0, 0, 0.7)" offset="1"></stop></linearGradient></defs></svg>