<svg xmlns="http://www.w3.org/2000/svg" version="1.1" xmlns:xlink="http://www.w3.org/1999/xlink" xmlns:svgjs="http://svgjs.dev/svgjs" width="1440" height="250" preserveAspectRatio="none" viewBox="0 0 1440 250"><g mask="url(&quot;#SvgjsMask1009&quot;)" fill="none"><path d="M27 250L277 0L319 0L69 250z" fill="url(&quot;#SvgjsLinearGradient1010&quot;)"></path><path d="M250.60000000000002 250L500.6 0L841.1 0L591.1 250z" fill="url(&quot;#SvgjsLinearGradient1010&quot;)"></path><path d="M519.2 250L769.2 0L1085.7 0L835.7 250z" fill="url(&quot;#SvgjsLinearGradient1010&quot;)"></path><path d="M746.8000000000001 250L996.8000000000001 0L1107.8000000000002 0L857.8000000000001 250z" fill="url(&quot;#SvgjsLinearGradient1010&quot;)"></path><path d="M1420 250L1170 0L985.5 0L1235.5 250z" fill="url(&quot;#SvgjsLinearGradient1011&quot;)"></path><path d="M1168.4 250L918.4000000000001 0L813.4000000000001 0L1063.4 250z" fill="url(&quot;#SvgjsLinearGradient1011&quot;)"></path><path d="M924.8 250L674.8 0L461.79999999999995 0L711.8 250z" fill="url(&quot;#SvgjsLinearGradient1011&quot;)"></path><path d="M715.1999999999999 250L465.19999999999993 0L232.69999999999993 0L482.69999999999993 250z" fill="url(&quot;#SvgjsLinearGradient1011&quot;)"></path><path d="M1305.8148392865614 250L1440 115.81483928656141L1440 250z" fill="url(&quot;#SvgjsLinearGradient1010&quot;)"></path><path d="M0 250L134.1851607134386 250L 0 115.81483928656141z" fill="url(&quot;#SvgjsLinearGradient1011&quot;)"></path></g><defs><mask id="SvgjsMask1009"><rect width="1440" height="250" fill="#ffffff"></rect></mask><linearGradient x1="0%" y1="100%" x2="100%" y2="0%" id="SvgjsLinearGradient1010"><stop stop-color="rgba(0, 0, 0, 0.53)" offset="0"></stop><stop stop-opacity="0" stop-color="rgba(0, 0, 0, 0.53)" offset="0.66"></stop></linearGradient><linearGradient x1="100%" y1="100%" x2="0%" y2="0%" id="SvgjsLinearGradient1011"><stop stop-color="rgba(0, 0, 0, 0.53)" offset="0"></stop><stop stop-opacity="0" stop-color="rgba(0, 0, 0, 0.53)" offset="0.66"></stop></linearGradient></defs></svg>