<svg xmlns="http://www.w3.org/2000/svg" version="1.1" xmlns:xlink="http://www.w3.org/1999/xlink" xmlns:svgjs="http://svgjs.dev/svgjs" width="1440" height="500" preserveAspectRatio="none" viewBox="0 0 1440 500"><g mask="url(&quot;#SvgjsMask1001&quot;)" fill="none"><path d="M 0,71 C 57.6,85.2 172.8,146 288,142 C 403.2,138 460.8,62.8 576,51 C 691.2,39.2 748.8,84.8 864,83 C 979.2,81.2 1036.8,28.6 1152,42 C 1267.2,55.4 1382.4,128.4 1440,150L1440 500L0 500z" fill="rgba(176, 178, 182, 1)"></path><path d="M 0,237 C 96,246 288,284.8 480,282 C 672,279.2 768,213 960,223 C 1152,233 1344,310.2 1440,332L1440 500L0 500z" fill="rgba(125, 125, 128, 1)"></path><path d="M 0,460 C 57.6,440.8 172.8,369.2 288,364 C 403.2,358.8 460.8,440 576,434 C 691.2,428 748.8,336 864,334 C 979.2,332 1036.8,412.8 1152,424 C 1267.2,435.2 1382.4,396.8 1440,390L1440 500L0 500z" fill="rgba(101, 100, 100, 1)"></path></g><defs><mask id="SvgjsMask1001"><rect width="1440" height="500" fill="#ffffff"></rect></mask></defs></svg>