<svg xmlns="http://www.w3.org/2000/svg" version="1.1" xmlns:xlink="http://www.w3.org/1999/xlink" xmlns:svgjs="http://svgjs.dev/svgjs" width="1440" height="300" preserveAspectRatio="none" viewBox="0 0 1440 300"><g mask="url(&quot;#SvgjsMask1084&quot;)" fill="none"><path d="M 0,100 C 32,88 96,47.6 160,40 C 224,32.4 256,67 320,62 C 384,57 416,8.8 480,15 C 544,21.2 576,94 640,93 C 704,92 736,17 800,10 C 864,3 896,54.8 960,58 C 1024,61.2 1056,19.6 1120,26 C 1184,32.4 1216,90.4 1280,90 C 1344,89.6 1408,37.2 1440,24L1440 300L0 300z" fill="rgba(187, 187, 188, 1)"></path><path d="M 0,143 C 28.8,154.4 86.4,203.4 144,200 C 201.6,196.6 230.4,133.6 288,126 C 345.6,118.4 374.4,158.6 432,162 C 489.6,165.4 518.4,136.4 576,143 C 633.6,149.6 662.4,200.6 720,195 C 777.6,189.4 806.4,118.8 864,115 C 921.6,111.2 950.4,178 1008,176 C 1065.6,174 1094.4,104.4 1152,105 C 1209.6,105.6 1238.4,176.4 1296,179 C 1353.6,181.6 1411.2,130.2 1440,118L1440 300L0 300z" fill="rgba(151, 151, 156, 1)"></path><path d="M 0,233 C 57.6,244.6 172.8,293.8 288,291 C 403.2,288.2 460.8,222.4 576,219 C 691.2,215.6 748.8,268.4 864,274 C 979.2,279.6 1036.8,246.8 1152,247 C 1267.2,247.2 1382.4,269.4 1440,275L1440 300L0 300z" fill="rgba(121, 118, 118, 1)"></path></g><defs><mask id="SvgjsMask1084"><rect width="1440" height="300" fill="#ffffff"></rect></mask></defs></svg>